# xmcd CD database file
#
# Track frame offsets:
#	150
#	10361
#	19938
#	32061
#	44484
#	53455
#	66478
#	81677
#	95072
#	106965
#
# Disc length: 1620 seconds
#
# Revision: 0
# Processed by: cddbd v1.5.1PL0 Copyright (c) Steve Scherf et al.
# Submitted via: CDex 1.51
#
DISCID=8806520a
DTITLE=Ramón Ayala and sus Bravos del Norte - Fiesta Norteña Serie de Oro CD 3/3
DYEAR=2004
DGENRE=Ranchero
TTITLE0=Ramón Ayala and sus Bravos del Norte - Corazoncito Tirano
TTITLE1=Los Alegres de Terán - Los Ojos de Pancha
TTITLE2=Los Humildes - Escaleras de La Carcel
TTITLE3=Lorenzo de Monteclaro - Aguanta Corazón
TTITLE4=Ramón Ayala and sus Bravos del Norte - La Pura Mañana
TTITLE5=Los Cachorros - Tres Tumbas
TTITLE6=los Cadetes de Linares - Menos que Nada
TTITLE7=Los ALegres de Terán - Cuando Salgo A Los Campos
TTITLE8=Los Montañeses del Alamo - Felipe Angeles
TTITLE9=Ramón Ayala and sus Bravos del Norte - Nadie Sabe
EXTD=YEAR: 2004
EXTT0=
EXTT1=
EXTT2=
EXTT3=
EXTT4=
EXTT5=
EXTT6=
EXTT7=
EXTT8=
EXTT9=
PLAYORDER=
